<?xml version="1.0" encoding="utf-8"?>
<!-- Generator: Adobe Illustrator 26.2.1, SVG Export Plug-In . SVG Version: 6.00 Build 0)  -->
<svg version="1.1" id="Calque_1" xmlns="http://www.w3.org/2000/svg" xmlns:xlink="http://www.w3.org/1999/xlink" x="0px" y="0px"
	 viewBox="0 0 512 512" style="enable-background:new 0 0 512 512;" xml:space="preserve">
<style type="text/css">
	.st0{fill:#BC9D56;}
	.st1{fill:#FFFFFF;}
</style>
<path class="st0" d="M219.1,217.5c-23.5,6.9-52.3,18.7-60.4,44.7c-3.5,14.2,1.1,27.7,12.4,36.6c12.2,9.8,31.2,13.1,45,6.8
	c8.9-4.1,15.7-11,18.7-21.7c-9.1,6.5-23.2,6.2-32-0.1c-7.4-5.9-11.4-14-11.1-23.3c1.5-17.9,20.5-31.3,36.2-35.9c5.1-1.5,11-2.7,17-3
	c-3.6,17.6-18.7,35.8-34.9,44.5c0,0,12.8,5.3,32.9-1.1c0,0,2.7,20.6,13.2,39.4c10.6-18.7,13.2-39.4,13.2-39.4
	c20,6.5,32.9,1.1,32.9,1.1c-16.2-8.8-31.3-26.9-35-44.5c6,0.3,11.9,1.5,17,3c15.7,4.5,34.7,17.9,36.2,35.9
	c0.3,9.3-3.8,17.5-11.1,23.3c-8.7,6.3-22.8,6.6-32,0.1c3,10.8,9.8,17.6,18.7,21.7c13.9,6.4,32.8,3,45-6.8
	c11.3-8.9,15.8-22.5,12.4-36.6c-8.1-26.1-36.9-37.8-60.4-44.7h0c36.6-3.3,71.2-13,97.9-39.3c19.9-21.1,32.7-50.9,21.1-80
	c-7.1-19.9-27.1-32.9-47.5-34c-48.6-2.7-70.9,45.5-73.5,60.7c0,0,25.9-31.7,62.2-23.3c11.2,2.6,22.1,11.9,25.2,23.7
	c5.1,21.5-3.5,41.4-19.3,56.3c-23.1,19.1-51.4,26.5-81,29.1c0.8-15.8,4.7-30.3,14.6-42c7.1-8,17.3-13.5,26.7-11.6
	c8.7,1.8,12.1,10.2,11.4,15.8c-1,8.6-8.9,14.3-8.9,14.3c16.4-1.6,33.1-15.1,37.3-30.6c4.9-19.4-11.5-40.9-38-34.8
	c-38.5,8.9-50.1,53.3-52.2,89.4c-1.3,0.1-2.6,0.1-3.9,0.2c-8.6-41.6,12.3-75.4,20.9-112.2h0c7.5-32.1-9.2-66.8-29.8-92.5
	c-20.6,25.7-37.3,60.4-29.8,92.5c8.6,36.8,29.5,70.6,20.9,112.2c-1.2,0-2.5-0.1-3.9-0.2c-2.1-36.2-13.7-80.6-52.2-89.4
	c-26.5-6.1-42.9,15.4-38,34.8c4.2,15.5,20.9,29,37.3,30.6c0,0-7.9-5.7-8.9-14.3c-0.7-5.6,2.7-14,11.4-15.8
	c9.4-1.9,19.6,3.6,26.7,11.6c10,11.8,13.9,26.2,14.6,42c-29.7-2.6-58-9.9-81.1-29.1c-15.8-14.9-24.4-34.8-19.3-56.3
	c3.1-11.8,14-21.1,25.2-23.7c36.3-8.3,62.2,23.3,62.2,23.3c-2.6-15.2-24.9-63.4-73.5-60.7c-20.4,1.1-40.4,14.2-47.4,34
	c-11.6,29.1,1.2,58.9,21.1,80C147.8,204.5,182.5,214.2,219.1,217.5"/>
<path class="st1" d="M411,365.8c0,2.2,1.9,5.3,4.5,8.3c3.3-2.5,5.8-5.6,5.8-8.5c0-3.4-2-5.4-5.1-5.4C412.9,360.2,411,362,411,365.8
	 M422,405.8l-11.2-16.7c-5.2,2.8-7.2,5.5-7.2,10.6c0,5.2,3.9,8.5,10.7,8.5C416.6,408.2,419.3,407.3,422,405.8 M439.4,407.4l7.8,11.3
	h-16.5l-2.3-3.4c-5.2,2.7-10.9,4.5-17.2,4.5c-12.1,0-21.9-7.6-21.9-19.4c0-10,5.6-15.6,14.5-20.4c-3.9-5-5.6-8.5-5.6-14
	c0-10.8,7.4-16.1,17.9-16.1c9.7,0,16.6,6.5,16.7,16.1c0.1,6.8-4.8,12.9-10.1,16.6l10.3,15c3.3-3.1,6.3-6.3,8.7-9.1l7.7,8.6
	C446.5,400.4,443.2,403.9,439.4,407.4 M90.3,363.3h-9.5v16.4h9.5c5.2,0,8.5-3.4,8.5-8.7C98.8,366.2,95.1,363.3,90.3,363.3
	 M99.7,418.7l-18.9-32.1v32.1H65.9v-68h24.4c14.3,0,23.4,8.6,23.4,20.3c0,10.1-6.2,16.9-15.2,19.3l18.1,28.4L99.7,418.7L99.7,418.7z
	 M175.9,418.7v-68h14.9v55.4h24.2v12.6L175.9,418.7z M253.5,372.4c-0.8-2.4-1.5-5.5-1.5-5.5s-0.6,3-1.4,5.5l-5.1,16.6h13
	L253.5,372.4z M267.5,418.7l-5.2-17.1h-20.7l-5.3,17.1h-15.7l24.3-68h14.3l24.7,68H267.5z M292.3,350.7h14.9v68h-14.9V350.7z
	 M338.8,419.8c-9.4,0-16.3-3.5-22.8-8.5l7.7-10.4c4,3.2,9.8,5.9,15.4,5.9c6.8,0,8.7-2.3,8.7-6.4c0-6.8-12.4-9.1-18.1-12.3
	c-6.8-3.7-12.2-8-12.2-18.8c0-14,12.2-19.7,24.2-19.7c6.4,0,14.2,1.8,19.7,5.9l-6.7,11.1c-3-2.2-8-3.9-13-3.9
	c-6.9,0-9.3,3.9-9.3,6.6c0,6.1,8.7,8,16.6,11.5c6.6,2.9,13.7,7.5,13.7,18.7C362.6,412.3,353.5,419.8,338.8,419.8 M51.7,505.4
	C31,505.4,17,491.7,17,469.9c0-20.4,15.4-34.7,34.5-34.7c10,0,17.5,2.9,24.5,10.1l-8.4,9.8c-4.6-4.6-9.8-6.8-16.1-6.8
	c-11.7,0-19.1,9.2-19.1,21.7c0,14,6.8,22.5,19.4,22.5c8.6,0,12.8-3.6,17.1-7.7l8.6,9.8C71.1,501.2,63.5,505.4,51.7,505.4 M179.6,458
	c-0.8-2.4-1.5-5.5-1.5-5.5s-0.6,3-1.4,5.5l-5.1,16.6h13L179.6,458z M193.6,504.3l-5.2-17.1h-20.7l-5.3,17.1h-15.8l24.3-68h14.4
	l24.7,68H193.6L193.6,504.3z M208.1,436.3v12.6h13.5v55.4h14.9v-55.4h13.1v-12.6H208.1z M338.7,458c-0.8-2.4-1.5-5.5-1.5-5.5
	s-0.6,3-1.4,5.5l-5.1,16.6h13L338.7,458L338.7,458z M352.7,504.3l-5.2-17.1h-20.7l-5.3,17.1h-15.8l24.3-68h14.4l24.7,68H352.7
	L352.7,504.3z M400.5,505.4c-15.6,0-29.1-10.1-29.1-28.7v-40.4h15v40.4c0,9.2,5.9,15.8,14.1,15.8c8.4,0,15-6.6,15-15.8v-40.4h14.8
	v40.4C430.3,495.3,416.3,505.4,400.5,505.4 M474.4,436.2l-9.8,17.8l-10.3-17.8h-16.5l18.4,30.9l-21.8,37.1H451l13.6-24l13.8,24H495
	l-22.3-37.1l18.2-30.9H474.4z M257.3,436.2v68h41v-12.6h-26.1v-15.1h24.7v-12.6h-24.7v-15.1h24.7v-12.6H257.3z M138.8,406.1V391
	h24.7v-12.6h-24.7v-15.1h24.7v-12.6h-39.6v68h41v-12.6L138.8,406.1z M124,436.3v27.7h-23.7v-27.7H85.4v68h14.9v-27.7H124v27.7h14.9
	v-68H124z"/>
</svg>
