<?xml version="1.0" encoding="utf-8"?>
<!-- Generator: Adobe Illustrator 26.2.1, SVG Export Plug-In . SVG Version: 6.00 Build 0)  -->
<svg version="1.1" id="Capa_1" xmlns="http://www.w3.org/2000/svg" xmlns:xlink="http://www.w3.org/1999/xlink" x="0px" y="0px"
	 viewBox="0 0 130 39.6" style="enable-background:new 0 0 130 39.6;" xml:space="preserve">
<style type="text/css">
	.st0{fill:#FFFFFF;}
</style>
<g>
	<path class="st0" d="M27.3,7.2l-3.2,1.1c-2.2-2.3-5.2-3.4-9-3.4c-2.9,0-5.3,0.8-7.2,2.3C6.1,8.7,5.1,10.6,5.1,13
		c0,2.4,0.9,4.4,2.7,5.8c1.8,1.5,4.3,2.2,7.4,2.2c3.8,0,6.7-1.2,8.9-3.5l3,1.7C25.6,21,23.9,22.2,22,23c-1.9,0.8-4.2,1.2-6.9,1.2
		c-3.8,0-6.9-0.9-9.4-2.8c-2.8-2.2-4.3-5-4.3-8.5c0-3.4,1.4-6.2,4.3-8.4c2.5-1.9,5.6-2.8,9.3-2.8C20.4,1.7,24.5,3.6,27.3,7.2"/>
	<polygon class="st0" points="79.3,2.4 67.9,23.6 63.8,23.6 52.4,2.4 56.3,2.4 65.8,20.1 75.4,2.4 	"/>
	<path class="st0" d="M125.6,7.4C122.5,5.8,119.3,5,116,5c-2.2,0-3.8,0.3-5,0.8c-1.2,0.5-1.7,1.2-1.7,2.1c0,0.9,0.6,1.6,1.8,2.1
		c0.9,0.3,2.3,0.5,4.3,0.6c2.9,0.2,4.9,0.4,5.8,0.5c2.7,0.4,4.6,1,5.9,2c1.3,1,1.9,2.3,1.9,4.1c0,2.2-1,4-3,5.2
		c-2,1.2-4.9,1.8-8.6,1.8c-5.4,0-9.6-1.2-12.6-3.6l1.9-2.6c3.3,2,6.9,3.1,10.7,3.1c2.5,0,4.4-0.3,5.8-1c1.3-0.7,2-1.6,2-2.7
		c0-1.3-0.9-2.3-2.6-2.7c-0.9-0.2-3.3-0.5-7.3-0.7c-3.5-0.2-6-0.7-7.4-1.4c-1.6-0.8-2.5-2.2-2.5-4.1c0-2,0.9-3.6,2.8-4.7
		c1.9-1.2,4.5-1.7,7.9-1.7c4.6,0,8.4,1,11.5,3.1L125.6,7.4z"/>
	<polygon class="st0" points="18.8,29.3 15.8,38.5 13.9,38.5 11.6,30.8 9.3,38.5 7.3,38.5 4.3,29.3 6,29.3 8.3,37 10.6,29.3 
		12.5,29.3 14.8,37 17.1,29.3 	"/>
	<rect x="21.9" y="29.3" class="st0" width="1.5" height="9.2"/>
	<polygon class="st0" points="38.2,38.5 36.3,38.5 29.3,30.9 29.3,38.5 27.8,38.5 27.8,29.3 29.7,29.3 36.7,36.8 36.7,29.3 
		38.2,29.3 	"/>
	<polygon class="st0" points="52.2,38.5 42.6,38.5 42.6,29.3 51.8,29.3 51.8,30.7 44.1,30.7 44.1,33 49.5,33 49.5,34.4 44.1,34.4 
		44.1,37.1 52.2,37.1 	"/>
	<polygon class="st0" points="69.4,38.5 60.8,38.5 60.8,29.3 62.3,29.3 62.3,37.1 69.4,37.1 	"/>
	<path class="st0" d="M83.8,33.9c0,1.5-0.6,2.7-1.9,3.7c-1.1,0.8-2.4,1.2-4,1.2c-1.6,0-3-0.4-4.1-1.2c-1.2-0.9-1.9-2.1-1.9-3.6
		c0-1.5,0.6-2.7,1.9-3.6c1.1-0.8,2.4-1.2,4-1.2c1.6,0,2.9,0.4,4,1.2C83.2,31.2,83.8,32.4,83.8,33.9 M82.2,33.9
		c0-1.1-0.5-1.9-1.4-2.6c-0.8-0.6-1.8-0.9-2.9-0.9c-1.3,0-2.3,0.3-3.1,1c-0.8,0.7-1.2,1.5-1.2,2.5c0,1,0.4,1.9,1.2,2.5
		c0.8,0.6,1.8,1,3.2,1c1.3,0,2.3-0.3,3.1-1C81.9,35.7,82.2,34.9,82.2,33.9"/>
	<path class="st0" d="M93.5,29.3c1.6,0,2.9,0.4,3.8,1.3c0.9,0.8,1.4,2,1.4,3.4c0,1.3-0.5,2.4-1.5,3.3c-0.9,0.8-2.1,1.2-3.4,1.2h-6.1
		v-9.2H93.5z M93.9,37.1c0.9,0,1.7-0.3,2.3-0.9c0.6-0.6,0.9-1.3,0.9-2.3c0-1-0.3-1.8-0.9-2.4c-0.6-0.6-1.5-0.9-2.5-0.9h-4.4v6.4
		H93.9z"/>
	<path class="st0" d="M113.8,33.7c0,1.5-0.5,2.7-1.6,3.6c-1.1,0.9-2.5,1.4-4.3,1.4c-1.6,0-3-0.4-4-1.2c-1.2-0.9-1.8-2.1-1.8-3.6
		c0-1.5,0.6-2.7,1.9-3.6c1.1-0.8,2.5-1.2,4.2-1.2c2,0,3.7,0.7,5,2.2l-1.4,0.7c-1-1-2.2-1.5-3.7-1.5c-1.2,0-2.1,0.3-2.9,0.9
		c-0.9,0.7-1.4,1.5-1.4,2.6c0,1,0.4,1.9,1.2,2.5c0.8,0.6,1.8,1,3.1,1c2,0,3.4-0.8,4-2.4h-4.3v-1.4h6.2V33.7z"/>
	<polygon class="st0" points="127.2,38.5 117.6,38.5 117.6,29.3 126.9,29.3 126.9,30.7 119.1,30.7 119.1,33 124.5,33 124.5,34.4 
		119.1,34.4 119.1,37.1 127.2,37.1 	"/>
	<polygon class="st0" points="44.4,2.4 39.9,2.4 28.7,23.6 32.5,23.6 42.2,5.4 51.8,23.6 55.6,23.6 	"/>
	<polygon class="st0" points="91.7,2.4 87.3,2.4 76,23.6 79.9,23.6 89.5,5.4 99.1,23.6 102.9,23.6 	"/>
	<path class="st0" d="M81.6,17.7c2.3-3.1,6.5-2.7,9.2-2c0.7,0.2,1.7,0.8,0.4,0.8c-2.6,0.1-7.7,0.3-9.3,3.3
		C79.9,23.6,81.6,17.7,81.6,17.7"/>
	<path class="st0" d="M50.1,17.7c-2.3-3.1-6.5-2.7-9.2-2c-0.7,0.2-1.7,0.8-0.4,0.8c2.6,0.1,7.7,0.3,9.3,3.3
		C51.8,23.6,50.1,17.7,50.1,17.7"/>
</g>
</svg>
